<svg data-v-67d810dd="" version="1.0" xmlns="http://www.w3.org/2000/svg" xmlns:xlink="http://www.w3.org/1999/xlink" width="100%" height="100%" viewBox="0 0 340.000000 250.000000" preserveAspectRatio="xMidYMid meet" color-interpolation-filters="sRGB" class="el-tooltip" style="margin: auto;"><rect data-v-67d810dd="" x="0" y="0" width="100%" height="100%" fill="#fff" fill-opacity="1"></rect> <rect data-v-67d810dd="" x="0" y="0" width="100%" height="100%" fill="url(#watermark)" fill-opacity="1" class="watermarklayer"></rect> <g data-v-67d810dd="" fill="#0b5394" class="iconlinesvg-g iconlinesvg" transform="translate(50.94767761230469,102.45751953125)"><g class="tp-name"><g transform="translate(0, 3.714599609375)"><g fill="#0b5394"><path d="M17.78-37.57L5.51-37.57L0-32.04L0-20.68L5.37-15.20L16.11-15.20L16.11-7.20L7.20-7.20L7.20-12.81L0-12.81L0-5.51L5.51 0L17.78 0L23.28-5.51L23.28-16.81L21.32-18.72L21.35-18.75L17.64-22.37L7.20-22.37L7.20-30.37L16.11-30.37L16.11-24.76L23.28-24.76L23.28-32.04L17.78-37.57Z" transform="translate(0, 37.57080078125)"></path></g></g><g transform="translate(27.28369140625, 3.714599609375)"><g fill="#0b5394"><path d="M15.20-37.57L15.20-22.37L7.20-22.37L7.20-37.57L0-37.57L0 0L7.20 0L7.20-15.20L15.20-15.20L15.20 0L22.40 0L22.40-37.57L15.20-37.57Z" transform="translate(0, 37.57080078125)"></path></g></g><g transform="translate(53.68115234375, 0)"><g class="imagesvg"><rect fill="#0b5394" fill-opacity="0" stroke-width="2" x="0" y="0" width="61.61672944854448" height="45.0849609375" class="image-rect"></rect> <svg x="0" y="0" width="61.61672944854448" height="45.0849609375" filtersec="colorsb9454762428" class="image-svg-svg"><svg xmlns="http://www.w3.org/2000/svg" viewBox="0 0 100 73.17"><path d="M99.04 67.45L74.48 18.3c-.33-.61-.85-1.13-1.51-1.46-1.6-.8-3.58-.14-4.38 1.46L58.22 39.03 39.66 1.85c-.33-.66-.85-1.18-1.51-1.51-1.6-.8-3.58-.14-4.38 1.51L.97 67.45c-.33.52-.52 1.13-.52 1.74 0 1.84 1.46 3.3 3.3 3.3h92.51c1.79 0 3.3-1.46 3.3-3.3 0-.61-.19-1.22-.52-1.74zM40.83 34.27l-5.33-6.22-9 2.97 10.18-20.41L47.9 33l-7.07 1.27zm33.51 10.89l-3.68-4.85-4.85-1.79 5.7-11.4 6.65 13.29-3.82 4.75z" fill="#0b5394"></path></svg></svg> <!----></g></g><g transform="translate(118.68115234375, 3.714599609375)"><g fill="#0b5394"><path d="M0-37.57L0 0L7.20 0L7.20-37.57L0-37.57Z" transform="translate(0, 37.57080078125)"></path></g></g><g transform="translate(129.87841796875, 3.714599609375)"><g fill="#0b5394"><path d="M7.20-7.20L7.20-37.57L0-37.57L0 0L19.07 0L19.07-7.20L7.20-7.20Z" transform="translate(0, 37.57080078125)"></path></g></g><g transform="translate(152.94580078125, 3.714599609375)"><g fill="#0b5394"><path d="M19.47-37.57L13.11-22.16L7.12-37.57L0-37.57L9.43-13.40L9.43 0L16.60 0L16.60-13.40L26.59-37.57L19.47-37.57Z" transform="translate(0, 37.57080078125)"></path></g></g><g transform="translate(183.53271484375, 3.714599609375)"><g fill="#0b5394"><path d="M15.93-18.77L23.98-37.57L16.11-37.57L12.00-27.98L7.90-37.57L0-37.57L8.06-18.77L0 0L7.87 0L12.00-9.59L16.11 0L23.98 0L15.93-18.77Z" transform="translate(0, 37.57080078125)"></path></g></g><g transform="translate(211.5146484375, 3.714599609375)"><g fill="#0b5394"><path d="M19.47-37.57L13.11-22.16L7.12-37.57L0-37.57L9.43-13.40L9.43 0L16.60 0L16.60-13.40L26.59-37.57L19.47-37.57Z" transform="translate(0, 37.57080078125)"></path></g></g></g> <!----></g></svg>