<svg data-v-67d810dd="" version="1.0" xmlns="http://www.w3.org/2000/svg" xmlns:xlink="http://www.w3.org/1999/xlink" width="100%" height="100%" viewBox="0 0 340.000000 250.000000" preserveAspectRatio="xMidYMid meet" color-interpolation-filters="sRGB" class="el-tooltip" style="margin: auto;"><rect data-v-67d810dd="" x="0" y="0" width="100%" height="100%" fill="#dae1e7" fill-opacity="1"></rect> <rect data-v-67d810dd="" x="0" y="0" width="100%" height="100%" fill="url(#watermark)" fill-opacity="1" class="watermarklayer"></rect> <g data-v-67d810dd="" class="iconmbgsvg" transform="translate(95,50)"><g fill="#1c4b82" hollow-target="textRect"><g mask="url(#60819ad1ea67a454f97b6507fd139659)"><rect fill="#1c4b82" fill-opacity="0" stroke-width="2" x="0" y="0" width="150" height="150" class="image-rect"></rect> <svg x="0" y="0" width="150" height="150" filtersec="colorsb9019741064" class="image-svg-svg"><svg xmlns="http://www.w3.org/2000/svg" viewBox="0 0 45.06 37.12"><g><g><path fill="#1c4b82" d="M21.59 25.63l1.27 1.85-1.25 1.86 5.34 7.78h14.12l-7.58-11.06h-2.21V23.59h3.04L33.23 22l-2.31-3.36-.62-.9 8.82-12.79h-2.39V2.48h4.1L42.53 0H28.57l-4.45 6.72 1.26 1.91-1.27 1.91-1.26-1.91L17.17 0H3.37l10.95 16.16h5.93v2.48H6.88v2.47h9.63v2.48H9.44L0 37.12h13.86l1.66-2.48 4.82-7.16 1.25-1.85z"></path><path fill="#1c4b82" d="M6.88 11.21h2.48v2.47H6.88zM4.4 21.11h2.47v2.47H4.4z"></path><path fill="#dd6b4d" d="M22.86 27.48l6.62 9.64h14.11l-7.58-11.06h-4.73V23.59H37.59v-2.48h-2.45l-1.69-2.47-.62-.9 8.82-12.79h-4.92V2.48H43.35L45.06 0H31.1l-5.72 8.63-1.26-1.91L19.7 0H5.89l10.95 16.16H20.25v2.48h-4.84l-1.72 2.47h2.82v2.48h-4.55L2.52 37.12H21.19v-2.48h-3.15l3.57-5.3 1.25-1.86z"></path><path fill="#dd6b4d" d="M40.07 21.11h2.48v2.47h-2.48z"></path><path fill="#183661" d="M29.48 37.12h11.59l-7.58-11.06h-2.21V23.59h3.04L33.23 22l-2.31-3.36-.62-.9 8.82-12.79h-2.39V2.48h4.1L42.53 0H31.1l-5.72 8.63-1.27 1.91-1.26-1.91L17.17 0H5.89l10.95 16.16H20.25v2.48h-4.84l-1.72 2.47h2.82v2.48h-4.55L2.52 37.12h11.34l1.66-2.48 4.82-7.16 1.25-1.85 1.27 1.85 6.62 9.64z"></path></g></g></svg></svg> <!----></g> <g transform="translate(10.404998779296875,61.78499984741211)"><g class="tp-name"><g><path d="M18.78-7.10L18.78-7.10Q18.78-5.31 18.00-3.98Q17.23-2.64 15.96-1.77Q14.69-0.89 13.12-0.45Q11.55 0 9.97 0L9.97 0Q7.16 0 4.65-1.09Q2.15-2.18 0.17-4.06L0.17-4.06Q-0.03-4.26-0.03-4.42L-0.03-4.42Q-0.03-4.62 0.13-4.80Q0.30-4.98 0.53-4.98L0.53-4.98Q0.69-4.98 0.86-4.82L0.86-4.82Q2.90-3.10 5.10-2.06Q7.29-1.02 10.03-1.02L10.03-1.02Q11.42-1.02 12.79-1.40Q14.16-1.78 15.26-2.56Q16.37-3.33 17.04-4.49Q17.72-5.64 17.72-7.19L17.72-7.19Q17.72-8.45 17.13-9.36Q16.53-10.26 15.58-10.91Q14.62-11.55 13.38-11.98Q12.14-12.41 10.89-12.72Q9.64-13.04 8.43-13.27Q7.23-13.50 6.34-13.73L6.34-13.73Q5.25-14.03 4.24-14.54Q3.23-15.05 2.48-15.81Q1.72-16.57 1.27-17.57Q0.83-18.58 0.83-19.83L0.83-19.83Q0.83-21.52 1.60-22.75Q2.38-23.99 3.61-24.80Q4.85-25.61 6.35-26.02Q7.85-26.43 9.31-26.43L9.31-26.43Q10.23-26.43 11.40-26.24Q12.57-26.04 13.74-25.66Q14.92-25.28 15.94-24.75Q16.96-24.22 17.66-23.56L17.66-23.56Q17.75-23.46 17.80-23.40Q17.85-23.33 17.85-23.17L17.85-23.17Q17.85-22.97 17.69-22.80Q17.52-22.64 17.32-22.64L17.32-22.64Q17.26-22.64 17.08-22.74Q16.90-22.84 16.68-22.98Q16.47-23.13 16.29-23.25Q16.10-23.36 16.00-23.43L16.00-23.43Q14.52-24.32 12.84-24.85Q11.15-25.38 9.37-25.38L9.37-25.38Q8.12-25.38 6.80-25.06Q5.48-24.75 4.37-24.09Q3.27-23.43 2.56-22.39Q1.85-21.35 1.85-19.90L1.85-19.90Q1.85-18.32 2.57-17.31Q3.30-16.30 4.49-15.66Q5.68-15.02 7.19-14.62Q8.71-14.22 10.31-13.86Q11.91-13.50 13.43-13.07Q14.95-12.64 16.14-11.90Q17.32-11.15 18.05-10.02Q18.78-8.88 18.78-7.10ZM43.75-25.91L43.75-0.53Q43.75-0.33 43.58-0.17Q43.42 0 43.22 0L43.22 0Q42.99 0 42.82-0.15Q42.66-0.30 42.66-0.53L42.66-0.53L42.66-10.89L27.15-10.89L27.15-0.53Q27.15 0 26.65 0L26.65 0Q26.42 0 26.29-0.17Q26.16-0.33 26.16-0.53L26.16-0.53L26.16-25.91Q26.16-26.10 26.30-26.25Q26.45-26.40 26.65-26.40L26.65-26.40Q26.85-26.40 27.00-26.25Q27.15-26.10 27.15-25.91L27.15-25.91L27.15-15.11L42.66-15.11L42.66-25.91Q42.66-26.14 42.84-26.27Q43.02-26.40 43.22-26.40L43.22-26.40Q43.42-26.40 43.58-26.25Q43.75-26.10 43.75-25.91L43.75-25.91ZM27.18-11.95L42.66-11.95L42.66-14.16L27.21-14.16L27.18-11.95ZM78.35-25.94L78.35-25.94Q78.35-25.77 78.32-25.74L78.32-25.74L78.32-0.49Q78.32-0.30 78.17-0.15Q78.02 0 77.82 0L77.82 0Q77.62 0 77.49-0.15Q77.36-0.30 77.36-0.49L77.36-0.49L77.36-24.32L65.97-8.38Q66.11-8.15 66.57-7.52Q67.03-6.90 67.64-6.06Q68.25-5.21 68.94-4.31Q69.64-3.40 70.20-2.59Q70.76-1.78 71.14-1.22Q71.52-0.66 71.52-0.53L71.52-0.53Q71.52-0.30 71.35-0.15Q71.19 0 70.99 0L70.99 0Q70.73 0 70.59-0.20L70.59-0.20L52.44-25.48Q52.34-25.61 52.34-25.81L52.34-25.81Q52.34-26.00 52.48-26.15Q52.61-26.30 52.84-26.30L52.84-26.30Q53.14-26.30 53.27-26.07L53.27-26.07L65.35-9.24L77.43-26.20Q77.56-26.40 77.79-26.40L77.79-26.40Q77.99-26.40 78.17-26.27Q78.35-26.14 78.35-25.94ZM67.53-0.49L67.53-0.49Q67.53-0.30 67.36-0.15Q67.20 0 67.00 0L67.00 0Q66.73 0 66.60-0.20L66.60-0.20L53.34-18.81L53.34-0.66Q53.34-0.43 53.17-0.30Q53.01-0.17 52.81-0.17L52.81-0.17Q52.61-0.17 52.44-0.31Q52.28-0.46 52.28-0.66L52.28-0.66L52.28-20.33Q52.28-20.56 52.41-20.76Q52.54-20.96 52.81-20.96L52.81-20.96Q53.07-20.96 53.20-20.72L53.20-20.72Q53.43-20.39 54.18-19.39Q54.92-18.38 55.96-16.93Q57.00-15.48 58.27-13.73Q59.54-11.98 60.83-10.18Q62.11-8.38 63.32-6.68Q64.52-4.98 65.46-3.65Q66.40-2.31 66.96-1.45Q67.53-0.59 67.53-0.49ZM87.97-25.91L87.97-0.49Q87.97-0.26 87.81-0.13Q87.64 0 87.44 0L87.44 0Q87.25 0 87.10-0.15Q86.95-0.30 86.95-0.49L86.95-0.49L86.95-25.91Q86.95-26.10 87.10-26.25Q87.25-26.40 87.44-26.40L87.44-26.40Q87.64-26.40 87.81-26.27Q87.97-26.14 87.97-25.91L87.97-25.91ZM113.44-0.49L113.44-0.49Q113.44 0 112.91 0L112.91 0L97.23 0Q96.74 0 96.74-0.49L96.74-0.49L96.74-25.74Q96.74-25.94 96.89-26.09Q97.03-26.24 97.23-26.24L97.23-26.24Q97.43-26.24 97.58-26.09Q97.73-25.94 97.73-25.74L97.73-25.74L97.73-0.99L99.94-0.99L99.94-25.87Q99.94-26.07 100.10-26.24Q100.27-26.40 100.47-26.40L100.47-26.40Q100.99-26.40 100.99-25.87L100.99-25.87L100.99-0.99L112.91-0.99Q113.44-0.99 113.44-0.49ZM129.16-25.91L129.16-25.91Q129.16-25.77 128.65-24.96Q128.14-24.16 127.35-22.97Q126.56-21.78 125.63-20.41Q124.71-19.04 123.85-17.80Q122.99-16.57 122.35-15.66Q121.71-14.75 121.51-14.49L121.51-14.49Q121.38-14.26 121.08-14.26L121.08-14.26Q120.78-14.26 120.58-14.52L120.58-14.52L112.66-25.54Q112.56-25.64 112.56-25.81L112.56-25.81Q112.56-26.04 112.75-26.19Q112.93-26.33 113.13-26.33L113.13-26.33Q113.32-26.33 113.49-26.14L113.49-26.14L121.05-15.64L128.21-26.17Q128.34-26.40 128.64-26.40L128.64-26.40Q128.83-26.40 129.00-26.25Q129.16-26.10 129.16-25.91ZM121.44-9.44L121.44-0.49Q121.44-0.30 121.29-0.15Q121.14 0 120.95 0L120.95 0Q120.75 0 120.60-0.15Q120.45-0.30 120.45-0.49L120.45-0.49L120.45-9.27Q120.19-9.64 119.20-10.97Q118.21-12.31 116.87-14.12Q115.53-15.94 114.07-17.97Q112.60-20.00 111.34-21.73Q110.09-23.46 109.28-24.63Q108.47-25.81 108.47-25.94L108.47-25.94Q108.47-26.14 108.65-26.27Q108.84-26.40 109.03-26.40L109.03-26.40Q109.26-26.40 109.43-26.20L109.43-26.20L121.34-9.74Q121.44-9.57 121.44-9.44L121.44-9.44Z" transform="translate(0.033, 26.433)"></path></g> <!----> <!----> <!----> <!----> <!----> <!----> <g fill="#183661" transform="translate(132.19000244140625,0)"><path d="" transform="translate(0, 26.433)"></path></g></g> <!----></g></g></g><mask id="60819ad1ea67a454f97b6507fd139659"><g fill="white"><rect fill-opacity="0" stroke-width="2" x="0" y="0" width="150" height="150" class="image-rect"></rect> <svg x="0" y="0" width="150" height="150" filtersec="colorsb9019741064" class="image-svg-svg"><svg xmlns="http://www.w3.org/2000/svg" viewBox="0 0 45.06 37.12"><g><g><path d="M21.59 25.63l1.27 1.85-1.25 1.86 5.34 7.78h14.12l-7.58-11.06h-2.21V23.59h3.04L33.23 22l-2.31-3.36-.62-.9 8.82-12.79h-2.39V2.48h4.1L42.53 0H28.57l-4.45 6.72 1.26 1.91-1.27 1.91-1.26-1.91L17.17 0H3.37l10.95 16.16h5.93v2.48H6.88v2.47h9.63v2.48H9.44L0 37.12h13.86l1.66-2.48 4.82-7.16 1.25-1.85z"></path><path d="M6.88 11.21h2.48v2.47H6.88zM4.4 21.11h2.47v2.47H4.4z"></path><path d="M22.86 27.48l6.62 9.64h14.11l-7.58-11.06h-4.73V23.59H37.59v-2.48h-2.45l-1.69-2.47-.62-.9 8.82-12.79h-4.92V2.48H43.35L45.06 0H31.1l-5.72 8.63-1.26-1.91L19.7 0H5.89l10.95 16.16H20.25v2.48h-4.84l-1.72 2.47h2.82v2.48h-4.55L2.52 37.12H21.19v-2.48h-3.15l3.57-5.3 1.25-1.86z"></path><path d="M40.07 21.11h2.48v2.47h-2.48z"></path><path d="M29.48 37.12h11.59l-7.58-11.06h-2.21V23.59h3.04L33.23 22l-2.31-3.36-.62-.9 8.82-12.79h-2.39V2.48h4.1L42.53 0H31.1l-5.72 8.63-1.27 1.91-1.26-1.91L17.17 0H5.89l10.95 16.16H20.25v2.48h-4.84l-1.72 2.47h2.82v2.48h-4.55L2.52 37.12h11.34l1.66-2.48 4.82-7.16 1.25-1.85 1.27 1.85 6.62 9.64z"></path></g></g></svg></svg> </g> <rect fill="#000" fill-opacity="1" x="6.904998779296875" y="58.28499984741211" width="136.19000244140625" height="33.43000030517578"></rect><g transform="translate(10.404998779296875,61.78499984741211)" fill="black"><g class="tp-name"><g><path d="M18.78-7.10L18.78-7.10Q18.78-5.31 18.00-3.98Q17.23-2.64 15.96-1.77Q14.69-0.89 13.12-0.45Q11.55 0 9.97 0L9.97 0Q7.16 0 4.65-1.09Q2.15-2.18 0.17-4.06L0.17-4.06Q-0.03-4.26-0.03-4.42L-0.03-4.42Q-0.03-4.62 0.13-4.80Q0.30-4.98 0.53-4.98L0.53-4.98Q0.69-4.98 0.86-4.82L0.86-4.82Q2.90-3.10 5.10-2.06Q7.29-1.02 10.03-1.02L10.03-1.02Q11.42-1.02 12.79-1.40Q14.16-1.78 15.26-2.56Q16.37-3.33 17.04-4.49Q17.72-5.64 17.72-7.19L17.72-7.19Q17.72-8.45 17.13-9.36Q16.53-10.26 15.58-10.91Q14.62-11.55 13.38-11.98Q12.14-12.41 10.89-12.72Q9.64-13.04 8.43-13.27Q7.23-13.50 6.34-13.73L6.34-13.73Q5.25-14.03 4.24-14.54Q3.23-15.05 2.48-15.81Q1.72-16.57 1.27-17.57Q0.83-18.58 0.83-19.83L0.83-19.83Q0.83-21.52 1.60-22.75Q2.38-23.99 3.61-24.80Q4.85-25.61 6.35-26.02Q7.85-26.43 9.31-26.43L9.31-26.43Q10.23-26.43 11.40-26.24Q12.57-26.04 13.74-25.66Q14.92-25.28 15.94-24.75Q16.96-24.22 17.66-23.56L17.66-23.56Q17.75-23.46 17.80-23.40Q17.85-23.33 17.85-23.17L17.85-23.17Q17.85-22.97 17.69-22.80Q17.52-22.64 17.32-22.64L17.32-22.64Q17.26-22.64 17.08-22.74Q16.90-22.84 16.68-22.98Q16.47-23.13 16.29-23.25Q16.10-23.36 16.00-23.43L16.00-23.43Q14.52-24.32 12.84-24.85Q11.15-25.38 9.37-25.38L9.37-25.38Q8.12-25.38 6.80-25.06Q5.48-24.75 4.37-24.09Q3.27-23.43 2.56-22.39Q1.85-21.35 1.85-19.90L1.85-19.90Q1.85-18.32 2.57-17.31Q3.30-16.30 4.49-15.66Q5.68-15.02 7.19-14.62Q8.71-14.22 10.31-13.86Q11.91-13.50 13.43-13.07Q14.95-12.64 16.14-11.90Q17.32-11.15 18.05-10.02Q18.78-8.88 18.78-7.10ZM43.75-25.91L43.75-0.53Q43.75-0.33 43.58-0.17Q43.42 0 43.22 0L43.22 0Q42.99 0 42.82-0.15Q42.66-0.30 42.66-0.53L42.66-0.53L42.66-10.89L27.15-10.89L27.15-0.53Q27.15 0 26.65 0L26.65 0Q26.42 0 26.29-0.17Q26.16-0.33 26.16-0.53L26.16-0.53L26.16-25.91Q26.16-26.10 26.30-26.25Q26.45-26.40 26.65-26.40L26.65-26.40Q26.85-26.40 27.00-26.25Q27.15-26.10 27.15-25.91L27.15-25.91L27.15-15.11L42.66-15.11L42.66-25.91Q42.66-26.14 42.84-26.27Q43.02-26.40 43.22-26.40L43.22-26.40Q43.42-26.40 43.58-26.25Q43.75-26.10 43.75-25.91L43.75-25.91ZM27.18-11.95L42.66-11.95L42.66-14.16L27.21-14.16L27.18-11.95ZM78.35-25.94L78.35-25.94Q78.35-25.77 78.32-25.74L78.32-25.74L78.32-0.49Q78.32-0.30 78.17-0.15Q78.02 0 77.82 0L77.82 0Q77.62 0 77.49-0.15Q77.36-0.30 77.36-0.49L77.36-0.49L77.36-24.32L65.97-8.38Q66.11-8.15 66.57-7.52Q67.03-6.90 67.64-6.06Q68.25-5.21 68.94-4.31Q69.64-3.40 70.20-2.59Q70.76-1.78 71.14-1.22Q71.52-0.66 71.52-0.53L71.52-0.53Q71.52-0.30 71.35-0.15Q71.19 0 70.99 0L70.99 0Q70.73 0 70.59-0.20L70.59-0.20L52.44-25.48Q52.34-25.61 52.34-25.81L52.34-25.81Q52.34-26.00 52.48-26.15Q52.61-26.30 52.84-26.30L52.84-26.30Q53.14-26.30 53.27-26.07L53.27-26.07L65.35-9.24L77.43-26.20Q77.56-26.40 77.79-26.40L77.79-26.40Q77.99-26.40 78.17-26.27Q78.35-26.14 78.35-25.94ZM67.53-0.49L67.53-0.49Q67.53-0.30 67.36-0.15Q67.20 0 67.00 0L67.00 0Q66.73 0 66.60-0.20L66.60-0.20L53.34-18.81L53.34-0.66Q53.34-0.43 53.17-0.30Q53.01-0.17 52.81-0.17L52.81-0.17Q52.61-0.17 52.44-0.31Q52.28-0.46 52.28-0.66L52.28-0.66L52.28-20.33Q52.28-20.56 52.41-20.76Q52.54-20.96 52.81-20.96L52.81-20.96Q53.07-20.96 53.20-20.72L53.20-20.72Q53.43-20.39 54.18-19.39Q54.92-18.38 55.96-16.93Q57.00-15.48 58.27-13.73Q59.54-11.98 60.83-10.18Q62.11-8.38 63.32-6.68Q64.52-4.98 65.46-3.65Q66.40-2.31 66.96-1.45Q67.53-0.59 67.53-0.49ZM87.97-25.91L87.97-0.49Q87.97-0.26 87.81-0.13Q87.64 0 87.44 0L87.44 0Q87.25 0 87.10-0.15Q86.95-0.30 86.95-0.49L86.95-0.49L86.95-25.91Q86.95-26.10 87.10-26.25Q87.25-26.40 87.44-26.40L87.44-26.40Q87.64-26.40 87.81-26.27Q87.97-26.14 87.97-25.91L87.97-25.91ZM113.44-0.49L113.44-0.49Q113.44 0 112.91 0L112.91 0L97.23 0Q96.74 0 96.74-0.49L96.74-0.49L96.74-25.74Q96.74-25.94 96.89-26.09Q97.03-26.24 97.23-26.24L97.23-26.24Q97.43-26.24 97.58-26.09Q97.73-25.94 97.73-25.74L97.73-25.74L97.73-0.99L99.94-0.99L99.94-25.87Q99.94-26.07 100.10-26.24Q100.27-26.40 100.47-26.40L100.47-26.40Q100.99-26.40 100.99-25.87L100.99-25.87L100.99-0.99L112.91-0.99Q113.44-0.99 113.44-0.49ZM129.16-25.91L129.16-25.91Q129.16-25.77 128.65-24.96Q128.14-24.16 127.35-22.97Q126.56-21.78 125.63-20.41Q124.71-19.04 123.85-17.80Q122.99-16.57 122.35-15.66Q121.71-14.75 121.51-14.49L121.51-14.49Q121.38-14.26 121.08-14.26L121.08-14.26Q120.78-14.26 120.58-14.52L120.58-14.52L112.66-25.54Q112.56-25.64 112.56-25.81L112.56-25.81Q112.56-26.04 112.75-26.19Q112.93-26.33 113.13-26.33L113.13-26.33Q113.32-26.33 113.49-26.14L113.49-26.14L121.05-15.64L128.21-26.17Q128.34-26.40 128.64-26.40L128.64-26.40Q128.83-26.40 129.00-26.25Q129.16-26.10 129.16-25.91ZM121.44-9.44L121.44-0.49Q121.44-0.30 121.29-0.15Q121.14 0 120.95 0L120.95 0Q120.75 0 120.60-0.15Q120.45-0.30 120.45-0.49L120.45-0.49L120.45-9.27Q120.19-9.64 119.20-10.97Q118.21-12.31 116.87-14.12Q115.53-15.94 114.07-17.97Q112.60-20.00 111.34-21.73Q110.09-23.46 109.28-24.63Q108.47-25.81 108.47-25.94L108.47-25.94Q108.47-26.14 108.65-26.27Q108.84-26.40 109.03-26.40L109.03-26.40Q109.26-26.40 109.43-26.20L109.43-26.20L121.34-9.74Q121.44-9.57 121.44-9.44L121.44-9.44Z" transform="translate(0.033, 26.433)"></path></g>       <g transform="translate(132.19000244140625,0)"><path d="" transform="translate(0, 26.433)"></path></g></g> </g></mask></svg>