<svg data-v-67d810dd="" version="1.0" xmlns="http://www.w3.org/2000/svg" xmlns:xlink="http://www.w3.org/1999/xlink" width="100%" height="100%" viewBox="0 0 340.000000 250.000000" preserveAspectRatio="xMidYMid meet" color-interpolation-filters="sRGB" class="el-tooltip" style="margin: auto;"><rect data-v-67d810dd="" x="0" y="0" width="100%" height="100%" fill="#FFFFFF" fill-opacity="1"></rect> <rect data-v-67d810dd="" x="0" y="0" width="100%" height="100%" fill="url(#watermark)" fill-opacity="1" class="watermarklayer"></rect> <g data-v-67d810dd="" class="iconmbgsvg" transform="translate(95,63.21571350097656)"><g fill="#000B34" hollow-target="textRect"><g mask="url(#de1ffb22b76bcba4af32f27f8cc0b6d5)"><rect fill="#000B34" fill-opacity="0" stroke-width="2" x="0" y="0" width="150" height="123.56857523301913" class="image-rect"></rect> <svg x="0" y="0" width="150" height="123.56857523301913" filtersec="colorsb4721240732" class="image-svg-svg"><svg xmlns="http://www.w3.org/2000/svg" viewBox="0 0 45.06 37.12"><g><g><path fill="#ff2351" d="M21.59 25.63l1.27 1.85-1.25 1.86 5.34 7.78h14.12l-7.58-11.06h-2.21V23.59h3.04L33.23 22l-2.31-3.36-.62-.9 8.82-12.79h-2.39V2.48h4.1L42.53 0H28.57l-4.45 6.72 1.26 1.91-1.27 1.91-1.26-1.91L17.17 0H3.37l10.95 16.16h5.93v2.48H6.88v2.47h9.63v2.48H9.44L0 37.12h13.86l1.66-2.48 4.82-7.16 1.25-1.85z"></path><path fill="#ff2351" d="M6.88 11.21h2.48v2.47H6.88zM4.4 21.11h2.47v2.47H4.4z"></path><path fill="#00d8eb" d="M22.86 27.48l6.62 9.64h14.11l-7.58-11.06h-4.73V23.59H37.59v-2.48h-2.45l-1.69-2.47-.62-.9 8.82-12.79h-4.92V2.48H43.35L45.06 0H31.1l-5.72 8.63-1.26-1.91L19.7 0H5.89l10.95 16.16H20.25v2.48h-4.84l-1.72 2.47h2.82v2.48h-4.55L2.52 37.12H21.19v-2.48h-3.15l3.57-5.3 1.25-1.86z"></path><path fill="#00d8eb" d="M40.07 21.11h2.48v2.47h-2.48z"></path><path fill="#000b34" d="M29.48 37.12h11.59l-7.58-11.06h-2.21V23.59h3.04L33.23 22l-2.31-3.36-.62-.9 8.82-12.79h-2.39V2.48h4.1L42.53 0H31.1l-5.72 8.63-1.27 1.91-1.26-1.91L17.17 0H5.89l10.95 16.16H20.25v2.48h-4.84l-1.72 2.47h2.82v2.48h-4.55L2.52 37.12h11.34l1.66-2.48 4.82-7.16 1.25-1.85 1.27 1.85 6.62 9.64z"></path></g></g></svg></svg> <!----></g> <g transform="translate(4.044883728027344,38.95238494873047)"><g class="tp-name" transform="translate(0,0)"><g><path d="M0.92-18.86L0.92-18.86Q0.92-20.53 1.56-21.99Q2.20-23.46 3.30-24.55Q4.39-25.65 5.86-26.29Q7.32-26.93 9.00-26.93L9.00-26.93L21.35-26.93L21.35-21.54L9.00-21.54Q8.43-21.54 7.94-21.33Q7.46-21.13 7.09-20.76Q6.72-20.40 6.52-19.91Q6.31-19.42 6.31-18.86L6.31-18.86Q6.31-18.29 6.52-17.79Q6.72-17.30 7.09-16.93Q7.46-16.56 7.94-16.36Q8.43-16.15 9.00-16.15L9.00-16.15L14.39-16.15Q16.06-16.15 17.53-15.52Q19.01-14.89 20.10-13.79Q21.20-12.70 21.83-11.22Q22.46-9.75 22.46-8.08L22.46-8.08Q22.46-6.40 21.83-4.94Q21.20-3.47 20.10-2.38Q19.01-1.28 17.53-0.64Q16.06 0 14.39 0L14.39 0L2.42 0L2.42-5.39L14.39-5.39Q14.95-5.39 15.44-5.60Q15.93-5.80 16.29-6.17Q16.66-6.54 16.86-7.02Q17.07-7.51 17.07-8.08L17.07-8.08Q17.07-8.64 16.86-9.13Q16.66-9.62 16.29-9.98Q15.93-10.35 15.44-10.55Q14.95-10.76 14.39-10.76L14.39-10.76L9.00-10.76Q7.32-10.76 5.86-11.40Q4.39-12.04 3.30-13.14Q2.20-14.24 1.56-15.71Q0.92-17.18 0.92-18.86ZM33.38-10.76L33.38 0L27.99 0L27.99-26.93L33.38-26.93L33.38-16.15L44.14-16.15L44.14-26.93L49.53-26.93L49.53 0L44.14 0L44.14-10.76L33.38-10.76ZM83.25-19.23L83.25 0L77.88 0L77.88-19.23Q77.88-19.79 77.66-20.28Q77.45-20.77 77.08-21.14Q76.72-21.50 76.23-21.71Q75.74-21.92 75.18-21.92L75.18-21.92Q74.61-21.92 74.12-21.71Q73.64-21.50 73.27-21.14Q72.90-20.77 72.70-20.28Q72.49-19.79 72.49-19.23L72.49-19.23L72.49 0L67.10 0L67.10-19.23Q67.10-19.79 66.89-20.28Q66.69-20.77 66.32-21.14Q65.96-21.50 65.47-21.71Q64.98-21.92 64.42-21.92L64.42-21.92Q63.85-21.92 63.36-21.71Q62.88-21.50 62.51-21.14Q62.14-20.77 61.94-20.28Q61.73-19.79 61.73-19.23L61.73-19.23L61.73 0L56.34 0L56.34-19.23Q56.34-20.90 56.97-22.38Q57.60-23.85 58.70-24.95Q59.80-26.05 61.27-26.68Q62.74-27.31 64.42-27.31L64.42-27.31Q65.92-27.31 67.31-26.77Q68.70-26.24 69.81-25.22L69.81-25.22Q70.91-26.24 72.29-26.77Q73.67-27.31 75.18-27.31L75.18-27.31Q76.85-27.31 78.32-26.68Q79.80-26.05 80.89-24.95Q81.99-23.85 82.62-22.38Q83.25-20.90 83.25-19.23L83.25-19.23ZM95.45-26.93L95.45 0L90.06 0L90.06-26.93L95.45-26.93ZM121.30-5.39L121.30 0L102.44 0L102.44-26.93L107.83-26.93L107.83-5.39L121.30-5.39ZM134.76-8.43L134.76 0L129.38 0L129.38-8.43Q127.60-8.88 126.11-9.88Q124.61-10.87 123.54-12.25Q122.47-13.63 121.88-15.32Q121.29-17.00 121.29-18.86L121.29-18.86L121.29-26.93L126.68-26.93L126.68-18.86Q126.68-17.75 127.10-16.76Q127.53-15.78 128.26-15.04Q128.99-14.31 129.98-13.89Q130.96-13.47 132.07-13.47L132.07-13.47Q133.18-13.47 134.16-13.89Q135.15-14.31 135.88-15.04Q136.62-15.78 137.04-16.76Q137.46-17.75 137.46-18.86L137.46-18.86L137.46-26.93L142.83-26.93L142.83-18.86Q142.83-17.00 142.24-15.32Q141.65-13.63 140.58-12.25Q139.51-10.87 138.02-9.88Q136.54-8.88 134.76-8.43L134.76-8.43Z" transform="translate(-0.92022235576922, 27.306189903846)"></path></g> <!----> <!----> <!----> <!----> <!----> <!----> <g fill="#ff2351" transform="translate(144.91000366210938,0)"></g></g> <g class="tp-slogan" fill="#000b34" transform="translate(0,33.30999946594238)"><!----> <rect x="0" height="1" y="5.675000190734863" width="40.81500244140625"></rect> <rect height="1" y="5.675000190734863" width="40.81500244140625" x="101.09500122070312"></rect> <g transform="translate(43.81500244140625,0)"><path d="M0.08-12.35C0.53-11.99 1.06-11.23 1.37-10.73L4.83-5.32L0.38 0L3.15 0L5.36-4.50L7.28-1.52C7.90-0.55 8.11 0 9.08 0L12.14 0C11.55-0.47 11.12-1.06 10.54-1.96L7.45-6.80L11.93-12.35L9.16-12.35L6.90-7.66L4.48-11.38C4.18-11.86 3.86-12.35 3.21-12.35ZM42.29-12.35C42.75-11.99 43.30-11.23 43.59-10.73L47.14-4.71L47.14-1.58C47.16-0.74 47.31 0 48.20 0L50.46 0C50.01-0.36 50.03-0.70 50.03-1.25L50.03-5.30L54.36-12.35L52.15-12.35L49.46-6.04L46.47-11.38C46.21-11.88 45.85-12.35 45.20-12.35Z" transform="translate(-0.076, 12.35)"></path></g></g></g></g></g><mask id="de1ffb22b76bcba4af32f27f8cc0b6d5"><g fill="white"><rect fill-opacity="0" stroke-width="2" x="0" y="0" width="150" height="123.56857523301913" class="image-rect"></rect> <svg x="0" y="0" width="150" height="123.56857523301913" filtersec="colorsb4721240732" class="image-svg-svg"><svg xmlns="http://www.w3.org/2000/svg" viewBox="0 0 45.06 37.12"><g><g><path d="M21.59 25.63l1.27 1.85-1.25 1.86 5.34 7.78h14.12l-7.58-11.06h-2.21V23.59h3.04L33.23 22l-2.31-3.36-.62-.9 8.82-12.79h-2.39V2.48h4.1L42.53 0H28.57l-4.45 6.72 1.26 1.91-1.27 1.91-1.26-1.91L17.17 0H3.37l10.95 16.16h5.93v2.48H6.88v2.47h9.63v2.48H9.44L0 37.12h13.86l1.66-2.48 4.82-7.16 1.25-1.85z"></path><path d="M6.88 11.21h2.48v2.47H6.88zM4.4 21.11h2.47v2.47H4.4z"></path><path d="M22.86 27.48l6.62 9.64h14.11l-7.58-11.06h-4.73V23.59H37.59v-2.48h-2.45l-1.69-2.47-.62-.9 8.82-12.79h-4.92V2.48H43.35L45.06 0H31.1l-5.72 8.63-1.26-1.91L19.7 0H5.89l10.95 16.16H20.25v2.48h-4.84l-1.72 2.47h2.82v2.48h-4.55L2.52 37.12H21.19v-2.48h-3.15l3.57-5.3 1.25-1.86z"></path><path d="M40.07 21.11h2.48v2.47h-2.48z"></path><path d="M29.48 37.12h11.59l-7.58-11.06h-2.21V23.59h3.04L33.23 22l-2.31-3.36-.62-.9 8.82-12.79h-2.39V2.48h4.1L42.53 0H31.1l-5.72 8.63-1.27 1.91-1.26-1.91L17.17 0H5.89l10.95 16.16H20.25v2.48h-4.84l-1.72 2.47h2.82v2.48h-4.55L2.52 37.12h11.34l1.66-2.48 4.82-7.16 1.25-1.85 1.27 1.85 6.62 9.64z"></path></g></g></svg></svg> </g> <rect fill="#000" fill-opacity="1" x="0.5448837280273438" y="35.45238494873047" width="148.9102325439453" height="52.66380310058594"></rect><g transform="translate(4.044883728027344,38.95238494873047)" fill="black"><g class="tp-name" transform="translate(0,0)"><g><path d="M0.92-18.86L0.92-18.86Q0.92-20.53 1.56-21.99Q2.20-23.46 3.30-24.55Q4.39-25.65 5.86-26.29Q7.32-26.93 9.00-26.93L9.00-26.93L21.35-26.93L21.35-21.54L9.00-21.54Q8.43-21.54 7.94-21.33Q7.46-21.13 7.09-20.76Q6.72-20.40 6.52-19.91Q6.31-19.42 6.31-18.86L6.31-18.86Q6.31-18.29 6.52-17.79Q6.72-17.30 7.09-16.93Q7.46-16.56 7.94-16.36Q8.43-16.15 9.00-16.15L9.00-16.15L14.39-16.15Q16.06-16.15 17.53-15.52Q19.01-14.89 20.10-13.79Q21.20-12.70 21.83-11.22Q22.46-9.75 22.46-8.08L22.46-8.08Q22.46-6.40 21.83-4.94Q21.20-3.47 20.10-2.38Q19.01-1.28 17.53-0.64Q16.06 0 14.39 0L14.39 0L2.42 0L2.42-5.39L14.39-5.39Q14.95-5.39 15.44-5.60Q15.93-5.80 16.29-6.17Q16.66-6.54 16.86-7.02Q17.07-7.51 17.07-8.08L17.07-8.08Q17.07-8.64 16.86-9.13Q16.66-9.62 16.29-9.98Q15.93-10.35 15.44-10.55Q14.95-10.76 14.39-10.76L14.39-10.76L9.00-10.76Q7.32-10.76 5.86-11.40Q4.39-12.04 3.30-13.14Q2.20-14.24 1.56-15.71Q0.92-17.18 0.92-18.86ZM33.38-10.76L33.38 0L27.99 0L27.99-26.93L33.38-26.93L33.38-16.15L44.14-16.15L44.14-26.93L49.53-26.93L49.53 0L44.14 0L44.14-10.76L33.38-10.76ZM83.25-19.23L83.25 0L77.88 0L77.88-19.23Q77.88-19.79 77.66-20.28Q77.45-20.77 77.08-21.14Q76.72-21.50 76.23-21.71Q75.74-21.92 75.18-21.92L75.18-21.92Q74.61-21.92 74.12-21.71Q73.64-21.50 73.27-21.14Q72.90-20.77 72.70-20.28Q72.49-19.79 72.49-19.23L72.49-19.23L72.49 0L67.10 0L67.10-19.23Q67.10-19.79 66.89-20.28Q66.69-20.77 66.32-21.14Q65.96-21.50 65.47-21.71Q64.98-21.92 64.42-21.92L64.42-21.92Q63.85-21.92 63.36-21.71Q62.88-21.50 62.51-21.14Q62.14-20.77 61.94-20.28Q61.73-19.79 61.73-19.23L61.73-19.23L61.73 0L56.34 0L56.34-19.23Q56.34-20.90 56.97-22.38Q57.60-23.85 58.70-24.95Q59.80-26.05 61.27-26.68Q62.74-27.31 64.42-27.31L64.42-27.31Q65.92-27.31 67.31-26.77Q68.70-26.24 69.81-25.22L69.81-25.22Q70.91-26.24 72.29-26.77Q73.67-27.31 75.18-27.31L75.18-27.31Q76.85-27.31 78.32-26.68Q79.80-26.05 80.89-24.95Q81.99-23.85 82.62-22.38Q83.25-20.90 83.25-19.23L83.25-19.23ZM95.45-26.93L95.45 0L90.06 0L90.06-26.93L95.45-26.93ZM121.30-5.39L121.30 0L102.44 0L102.44-26.93L107.83-26.93L107.83-5.39L121.30-5.39ZM134.76-8.43L134.76 0L129.38 0L129.38-8.43Q127.60-8.88 126.11-9.88Q124.61-10.87 123.54-12.25Q122.47-13.63 121.88-15.32Q121.29-17.00 121.29-18.86L121.29-18.86L121.29-26.93L126.68-26.93L126.68-18.86Q126.68-17.75 127.10-16.76Q127.53-15.78 128.26-15.04Q128.99-14.31 129.98-13.89Q130.96-13.47 132.07-13.47L132.07-13.47Q133.18-13.47 134.16-13.89Q135.15-14.31 135.88-15.04Q136.62-15.78 137.04-16.76Q137.46-17.75 137.46-18.86L137.46-18.86L137.46-26.93L142.83-26.93L142.83-18.86Q142.83-17.00 142.24-15.32Q141.65-13.63 140.58-12.25Q139.51-10.87 138.02-9.88Q136.54-8.88 134.76-8.43L134.76-8.43Z" transform="translate(-0.92022235576922, 27.306189903846)"></path></g>       <g transform="translate(144.91000366210938,0)"></g></g> <g class="tp-slogan" transform="translate(0,33.30999946594238)"> <rect x="0" height="1" y="5.675000190734863" width="40.81500244140625"></rect> <rect height="1" y="5.675000190734863" width="40.81500244140625" x="101.09500122070312"></rect> <g transform="translate(43.81500244140625,0)"><path d="M0.08-12.35C0.53-11.99 1.06-11.23 1.37-10.73L4.83-5.32L0.38 0L3.15 0L5.36-4.50L7.28-1.52C7.90-0.55 8.11 0 9.08 0L12.14 0C11.55-0.47 11.12-1.06 10.54-1.96L7.45-6.80L11.93-12.35L9.16-12.35L6.90-7.66L4.48-11.38C4.18-11.86 3.86-12.35 3.21-12.35ZM42.29-12.35C42.75-11.99 43.30-11.23 43.59-10.73L47.14-4.71L47.14-1.58C47.16-0.74 47.31 0 48.20 0L50.46 0C50.01-0.36 50.03-0.70 50.03-1.25L50.03-5.30L54.36-12.35L52.15-12.35L49.46-6.04L46.47-11.38C46.21-11.88 45.85-12.35 45.20-12.35Z" transform="translate(-0.076, 12.35)"></path></g></g></g></mask></svg>