<svg data-v-67d810dd="" version="1.0" xmlns="http://www.w3.org/2000/svg" xmlns:xlink="http://www.w3.org/1999/xlink" width="100%" height="100%" viewBox="0 0 340.000000 250.000000" preserveAspectRatio="xMidYMid meet" color-interpolation-filters="sRGB" class="el-tooltip" style="margin:auto">
    <rect data-v-67d810dd="" x="0" y="0" width="100%" height="100%" fill="url(#watermark)" fill-opacity="1" class="watermarklayer"/>
    <g data-v-67d810dd="" fill="#000B34" class="icon-text-wrapper icon-svg-group iconsvg" >
        <g class="iconsvg-imagesvg" transform="translate(0,0)">
            <rect fill="#000B34" fill-opacity="0" stroke-width="2" x="0" y="0" width="340" height="250" class="image-rect"/>
            <svg x="0" y="0" width="340" height="250" filtersec="colorsb7681735751" class="image-svg-svg">
                <svg xmlns="http://www.w3.org/2000/svg" viewBox="0 0 45.06 37.12">
                    <g>
                        <g>
                            <path fill="#ff2351" d="M21.59 25.63l1.27 1.85-1.25 1.86 5.34 7.78h14.12l-7.58-11.06h-2.21V23.59h3.04L33.23 22l-2.31-3.36-.62-.9 8.82-12.79h-2.39V2.48h4.1L42.53 0H28.57l-4.45 6.72 1.26 1.91-1.27 1.91-1.26-1.91L17.17 0H3.37l10.95 16.16h5.93v2.48H6.88v2.47h9.63v2.48H9.44L0 37.12h13.86l1.66-2.48 4.82-7.16 1.25-1.85z"/>
                            <path fill="#ff2351" d="M6.88 11.21h2.48v2.47H6.88zM4.4 21.11h2.47v2.47H4.4z"/>
                            <path fill="#00d8eb" d="M22.86 27.48l6.62 9.64h14.11l-7.58-11.06h-4.73V23.59H37.59v-2.48h-2.45l-1.69-2.47-.62-.9 8.82-12.79h-4.92V2.48H43.35L45.06 0H31.1l-5.72 8.63-1.26-1.91L19.7 0H5.89l10.95 16.16H20.25v2.48h-4.84l-1.72 2.47h2.82v2.48h-4.55L2.52 37.12H21.19v-2.48h-3.15l3.57-5.3 1.25-1.86z"/>
                            <path fill="#00d8eb" d="M40.07 21.11h2.48v2.47h-2.48z"/>
                            <path fill="#000b34" d="M29.48 37.12h11.59l-7.58-11.06h-2.21V23.59h3.04L33.23 22l-2.31-3.36-.62-.9 8.82-12.79h-2.39V2.48h4.1L42.53 0H31.1l-5.72 8.63-1.27 1.91-1.26-1.91L17.17 0H5.89l10.95 16.16H20.25v2.48h-4.84l-1.72 2.47h2.82v2.48h-4.55L2.52 37.12h11.34l1.66-2.48 4.82-7.16 1.25-1.85 1.27 1.85 6.62 9.64z"/>
                        </g>
                    </g>
                </svg>
            </svg>
        </g>
        <g transform="translate(75,130.56857299804688)">
            <g class="tp-name iconsvg-namesvg">
                <g>
                    <path d="" transform="translate(0, 0)"/>
                </g>
                <g fill="#ff2351" transform="translate(3,0)"/>
            </g>
        </g>
    </g>
</svg>
