<svg data-v-67d810dd="" version="1.0" xmlns="http://www.w3.org/2000/svg" xmlns:xlink="http://www.w3.org/1999/xlink" width="100%" height="100%" viewBox="0 0 270.000000 40.000000" preserveAspectRatio="xMidYMid meet" color-interpolation-filters="sRGB" class="el-tooltip" style="margin:auto">
    <g data-v-67d810dd="" fill="#fff" class="icon-text-wrapper icon-svg-group iconsvg">
        <g>
            <g class="tp-name iconsvg-namesvg">
                <g>
                    <path d="M28.45-10.75L28.45-10.75Q28.45-8.05 27.28-6.03Q26.10-4 24.18-2.68Q22.25-1.35 19.88-0.68Q17.50 0 15.10 0L15.10 0Q10.85 0 7.05-1.65Q3.25-3.30 0.25-6.15L0.25-6.15Q-0.05-6.45-0.05-6.70L-0.05-6.70Q-0.05-7 0.20-7.28Q0.45-7.55 0.80-7.55L0.80-7.55Q1.05-7.55 1.30-7.30L1.30-7.30Q4.40-4.70 7.73-3.13Q11.05-1.55 15.20-1.55L15.20-1.55Q17.30-1.55 19.38-2.13Q21.45-2.70 23.13-3.88Q24.80-5.05 25.83-6.80Q26.85-8.55 26.85-10.90L26.85-10.90Q26.85-12.80 25.95-14.18Q25.05-15.55 23.60-16.53Q22.15-17.50 20.28-18.15Q18.40-18.80 16.50-19.28Q14.60-19.75 12.78-20.10Q10.95-20.45 9.60-20.80L9.60-20.80Q7.95-21.25 6.43-22.03Q4.90-22.80 3.75-23.95Q2.60-25.10 1.93-26.63Q1.25-28.15 1.25-30.05L1.25-30.05Q1.25-32.60 2.43-34.48Q3.60-36.35 5.48-37.58Q7.35-38.80 9.63-39.43Q11.90-40.05 14.10-40.05L14.10-40.05Q15.50-40.05 17.28-39.75Q19.05-39.45 20.83-38.88Q22.60-38.30 24.15-37.50Q25.70-36.70 26.75-35.70L26.75-35.70Q26.90-35.55 26.98-35.45Q27.05-35.35 27.05-35.10L27.05-35.10Q27.05-34.80 26.80-34.55Q26.55-34.30 26.25-34.30L26.25-34.30Q26.15-34.30 25.88-34.45Q25.60-34.60 25.28-34.83Q24.95-35.05 24.68-35.23Q24.40-35.40 24.25-35.50L24.25-35.50Q22-36.85 19.45-37.65Q16.90-38.45 14.20-38.45L14.20-38.45Q12.30-38.45 10.30-37.98Q8.30-37.50 6.63-36.50Q4.95-35.50 3.88-33.93Q2.80-32.35 2.80-30.15L2.80-30.15Q2.80-27.75 3.90-26.23Q5-24.70 6.80-23.73Q8.60-22.75 10.90-22.15Q13.20-21.55 15.63-21Q18.05-20.45 20.35-19.80Q22.65-19.15 24.45-18.03Q26.25-16.90 27.35-15.18Q28.45-13.45 28.45-10.75ZM65.25-39.25L65.25-0.80Q65.25-0.50 65-0.25Q64.75 0 64.45 0L64.45 0Q64.10 0 63.85-0.23Q63.60-0.45 63.60-0.80L63.60-0.80L63.60-16.50L40.10-16.50L40.10-0.80Q40.10 0 39.35 0L39.35 0Q39 0 38.80-0.25Q38.60-0.50 38.60-0.80L38.60-0.80L38.60-39.25Q38.60-39.55 38.83-39.78Q39.05-40 39.35-40L39.35-40Q39.65-40 39.88-39.78Q40.10-39.55 40.10-39.25L40.10-39.25L40.10-22.90L63.60-22.90L63.60-39.25Q63.60-39.60 63.88-39.80Q64.15-40 64.45-40L64.45-40Q64.75-40 65-39.78Q65.25-39.55 65.25-39.25L65.25-39.25ZM40.15-18.10L63.60-18.10L63.60-21.45L40.20-21.45L40.15-18.10ZM116.65-39.30L116.65-39.30Q116.65-39.05 116.60-39L116.60-39L116.60-0.75Q116.60-0.45 116.38-0.23Q116.15 0 115.85 0L115.85 0Q115.55 0 115.35-0.23Q115.15-0.45 115.15-0.75L115.15-0.75L115.15-36.85L97.90-12.70Q98.10-12.35 98.80-11.40Q99.50-10.45 100.42-9.18Q101.35-7.90 102.40-6.53Q103.45-5.15 104.30-3.93Q105.15-2.70 105.72-1.85Q106.30-1 106.30-0.80L106.30-0.80Q106.30-0.45 106.05-0.23Q105.80 0 105.50 0L105.50 0Q105.10 0 104.90-0.30L104.90-0.30L77.40-38.60Q77.25-38.80 77.25-39.10L77.25-39.10Q77.25-39.40 77.45-39.63Q77.65-39.85 78-39.85L78-39.85Q78.45-39.85 78.65-39.50L78.65-39.50L96.95-14L115.25-39.70Q115.45-40 115.80-40L115.80-40Q116.10-40 116.38-39.80Q116.65-39.60 116.65-39.30ZM100.25-0.75L100.25-0.75Q100.25-0.45 100-0.23Q99.75 0 99.45 0L99.45 0Q99.05 0 98.85-0.30L98.85-0.30L78.75-28.50L78.75-1Q78.75-0.65 78.50-0.45Q78.25-0.25 77.95-0.25L77.95-0.25Q77.65-0.25 77.40-0.48Q77.15-0.70 77.15-1L77.15-1L77.15-30.80Q77.15-31.15 77.35-31.45Q77.55-31.75 77.95-31.75L77.95-31.75Q78.35-31.75 78.55-31.40L78.55-31.40Q78.90-30.90 80.03-29.38Q81.15-27.85 82.72-25.65Q84.30-23.45 86.22-20.80Q88.15-18.15 90.10-15.43Q92.05-12.70 93.88-10.13Q95.70-7.55 97.13-5.53Q98.55-3.50 99.40-2.20Q100.25-0.90 100.25-0.75ZM130.20-39.25L130.20-0.75Q130.20-0.40 129.95-0.20Q129.70 0 129.40 0L129.40 0Q129.10 0 128.88-0.23Q128.65-0.45 128.65-0.75L128.65-0.75L128.65-39.25Q128.65-39.55 128.88-39.78Q129.10-40 129.40-40L129.40-40Q129.70-40 129.95-39.80Q130.20-39.60 130.20-39.25L130.20-39.25ZM167.75-0.75L167.75-0.75Q167.75 0 166.95 0L166.95 0L143.20 0Q142.45 0 142.45-0.75L142.45-0.75L142.45-39Q142.45-39.30 142.67-39.53Q142.90-39.75 143.20-39.75L143.20-39.75Q143.50-39.75 143.72-39.53Q143.95-39.30 143.95-39L143.95-39L143.95-1.50L147.30-1.50L147.30-39.20Q147.30-39.50 147.55-39.75Q147.80-40 148.10-40L148.10-40Q148.90-40 148.90-39.20L148.90-39.20L148.90-1.50L166.95-1.50Q167.75-1.50 167.75-0.75ZM190.55-39.25L190.55-39.25Q190.55-39.05 189.78-37.83Q189-36.60 187.80-34.80Q186.60-33 185.20-30.93Q183.80-28.85 182.50-26.98Q181.20-25.10 180.22-23.73Q179.25-22.35 178.95-21.95L178.95-21.95Q178.75-21.60 178.30-21.60L178.30-21.60Q177.85-21.60 177.55-22L177.55-22L165.55-38.70Q165.40-38.85 165.40-39.10L165.40-39.10Q165.40-39.45 165.68-39.68Q165.95-39.90 166.25-39.90L166.25-39.90Q166.55-39.90 166.80-39.60L166.80-39.60L178.25-23.70L189.10-39.65Q189.30-40 189.75-40L189.75-40Q190.05-40 190.30-39.78Q190.55-39.55 190.55-39.25ZM178.85-14.30L178.85-0.75Q178.85-0.45 178.63-0.23Q178.40 0 178.10 0L178.10 0Q177.80 0 177.57-0.23Q177.35-0.45 177.35-0.75L177.35-0.75L177.35-14.05Q176.95-14.60 175.45-16.63Q173.95-18.65 171.93-21.40Q169.90-24.15 167.68-27.23Q165.45-30.30 163.55-32.93Q161.65-35.55 160.43-37.33Q159.20-39.10 159.20-39.30L159.20-39.30Q159.20-39.60 159.47-39.80Q159.75-40 160.05-40L160.05-40Q160.40-40 160.65-39.70L160.65-39.70L178.70-14.75Q178.85-14.50 178.85-14.30L178.85-14.30ZM234.60-0.70L234.60-0.70Q234.60-0.40 234.32-0.20Q234.05 0 233.80 0L233.80 0Q233.35 0 233.15-0.30L233.15-0.30Q232.75-0.95 231.35-2.93Q229.95-4.90 227.93-7.70Q225.90-10.50 223.45-13.85Q221-17.20 218.50-20.65Q216-24.10 213.65-27.35Q211.30-30.60 209.47-33.15Q207.65-35.70 206.55-37.33Q205.45-38.95 205.45-39.10L205.45-39.10Q205.45-39.45 205.72-39.68Q206-39.90 206.30-39.90L206.30-39.90Q206.60-39.90 206.85-39.60L206.85-39.60L217.95-24.15L229.10-39.70Q229.30-40 229.70-40L229.70-40Q230-40 230.25-39.80Q230.50-39.60 230.50-39.25L230.50-39.25Q230.50-39.05 229.72-37.88Q228.95-36.70 227.75-35Q226.55-33.30 225.15-31.33Q223.75-29.35 222.45-27.58Q221.15-25.80 220.18-24.50Q219.20-23.20 218.90-22.80L218.90-22.80L234.40-1.20Q234.60-1 234.60-0.70ZM228.50-0.80L228.50-0.80Q228.50-0.45 228.25-0.23Q228 0 227.70 0L227.70 0Q227.30 0 227.10-0.30L227.10-0.30L214.90-17.30L202.75-0.30Q202.50 0 202.15 0L202.15 0Q201.85 0 201.60-0.23Q201.35-0.45 201.35-0.80L201.35-0.80Q201.35-0.95 202.20-2.23Q203.05-3.50 204.35-5.35Q205.65-7.20 207.22-9.33Q208.80-11.45 210.20-13.38Q211.60-15.30 212.65-16.75Q213.70-18.20 214-18.60L214-18.60Q213.65-19.05 212.42-20.70Q211.20-22.35 209.57-24.60Q207.95-26.85 206.15-29.35Q204.35-31.85 202.85-34Q201.35-36.15 200.35-37.60Q199.35-39.05 199.35-39.25L199.35-39.25Q199.35-39.55 199.57-39.78Q199.80-40 200.15-40L200.15-40Q200.50-40 200.75-39.70L200.75-39.70Q201.15-39.10 202.55-37.13Q203.95-35.15 205.97-32.35Q208-29.55 210.47-26.15Q212.95-22.75 215.45-19.30Q217.95-15.85 220.30-12.58Q222.65-9.30 224.47-6.73Q226.30-4.15 227.40-2.55Q228.50-0.95 228.50-0.80ZM271.20-39.25L271.20-39.25Q271.20-39.05 270.43-37.83Q269.65-36.60 268.45-34.80Q267.25-33 265.85-30.93Q264.45-28.85 263.15-26.98Q261.85-25.10 260.88-23.73Q259.90-22.35 259.60-21.95L259.60-21.95Q259.40-21.60 258.95-21.60L258.95-21.60Q258.50-21.60 258.20-22L258.20-22L246.20-38.70Q246.05-38.85 246.05-39.10L246.05-39.10Q246.05-39.45 246.33-39.68Q246.60-39.90 246.90-39.90L246.90-39.90Q247.20-39.90 247.45-39.60L247.45-39.60L258.90-23.70L269.75-39.65Q269.95-40 270.40-40L270.40-40Q270.70-40 270.95-39.78Q271.20-39.55 271.20-39.25ZM259.50-14.30L259.50-0.75Q259.50-0.45 259.27-0.23Q259.05 0 258.75 0L258.75 0Q258.45 0 258.23-0.23Q258-0.45 258-0.75L258-0.75L258-14.05Q257.60-14.60 256.10-16.63Q254.60-18.65 252.58-21.40Q250.55-24.15 248.33-27.23Q246.10-30.30 244.20-32.93Q242.30-35.55 241.08-37.33Q239.85-39.10 239.85-39.30L239.85-39.30Q239.85-39.60 240.13-39.80Q240.40-40 240.70-40L240.70-40Q241.05-40 241.30-39.70L241.30-39.70L259.35-14.75Q259.50-14.50 259.50-14.30L259.50-14.30Z" transform="translate(0.05, 40.050000000000004)"></path>
                </g>
                <g fill="#ff2351" transform="translate(274.25,0)"></g>
            </g>
        </g>
    </g>
</svg>