<svg data-v-67d810dd="" version="1.0" xmlns="http://www.w3.org/2000/svg" xmlns:xlink="http://www.w3.org/1999/xlink" width="100%" height="100%" viewBox="0 0 340.000000 250.000000" preserveAspectRatio="xMidYMid meet" color-interpolation-filters="sRGB" class="el-tooltip" style="margin: auto;"><rect data-v-67d810dd="" x="0" y="0" width="100%" height="100%" fill="#FFFFFF" fill-opacity="1"></rect> <rect data-v-67d810dd="" x="0" y="0" width="100%" height="100%" fill="url(#watermark)" fill-opacity="1" class="watermarklayer"></rect> <g data-v-67d810dd="" fill="#000B34" class="icon-text-wrapper icon-svg-group iconsvg" transform="translate(97.09879302978516,50.68257141113281)"><g class="iconsvg-imagesvg" transform="translate(12.901206970214844,0)"><rect fill="#000B34" fill-opacity="0" stroke-width="2" x="0" y="0" width="120" height="98.85486018641531" class="image-rect"></rect> <svg x="0" y="0" width="120" height="98.85486018641531" filtersec="colorsb2179959911" class="image-svg-svg"><svg xmlns="http://www.w3.org/2000/svg" viewBox="0 0 45.06 37.12"><g><g><path fill="#ff2351" d="M21.59 25.63l1.27 1.85-1.25 1.86 5.34 7.78h14.12l-7.58-11.06h-2.21V23.59h3.04L33.23 22l-2.31-3.36-.62-.9 8.82-12.79h-2.39V2.48h4.1L42.53 0H28.57l-4.45 6.72 1.26 1.91-1.27 1.91-1.26-1.91L17.17 0H3.37l10.95 16.16h5.93v2.48H6.88v2.47h9.63v2.48H9.44L0 37.12h13.86l1.66-2.48 4.82-7.16 1.25-1.85z"></path><path fill="#ff2351" d="M6.88 11.21h2.48v2.47H6.88zM4.4 21.11h2.47v2.47H4.4z"></path><path fill="#00d8eb" d="M22.86 27.48l6.62 9.64h14.11l-7.58-11.06h-4.73V23.59H37.59v-2.48h-2.45l-1.69-2.47-.62-.9 8.82-12.79h-4.92V2.48H43.35L45.06 0H31.1l-5.72 8.63-1.26-1.91L19.7 0H5.89l10.95 16.16H20.25v2.48h-4.84l-1.72 2.47h2.82v2.48h-4.55L2.52 37.12H21.19v-2.48h-3.15l3.57-5.3 1.25-1.86z"></path><path fill="#00d8eb" d="M40.07 21.11h2.48v2.47h-2.48z"></path><path fill="#000b34" d="M29.48 37.12h11.59l-7.58-11.06h-2.21V23.59h3.04L33.23 22l-2.31-3.36-.62-.9 8.82-12.79h-2.39V2.48h4.1L42.53 0H31.1l-5.72 8.63-1.27 1.91-1.26-1.91L17.17 0H5.89l10.95 16.16H20.25v2.48h-4.84l-1.72 2.47h2.82v2.48h-4.55L2.52 37.12h11.34l1.66-2.48 4.82-7.16 1.25-1.85 1.27 1.85 6.62 9.64z"></path></g></g></svg></svg> <!----></g> <g transform="translate(0,105.8548583984375)"><g class="tp-name iconsvg-namesvg" transform="translate(0,0)"><g><path d="M7.25-21.56L24.51-21.56L24.51-24.43L7.25-24.43Q4.88-24.43 3.19-22.76L3.19-22.76Q1.50-21.07 1.50-18.69L1.50-18.69L1.50-17.26Q1.50-14.87 3.19-13.18L3.19-13.18Q4.88-11.49 7.25-11.49L7.25-11.49L18.76-11.49Q19.94-11.49 20.79-10.65L20.79-10.65Q21.63-9.82 21.63-8.62L21.63-8.62L21.63-5.75Q21.63-4.56 20.79-3.72L20.79-3.72Q19.94-2.87 18.76-2.87L18.76-2.87L1.50-2.87L1.50 0L18.76 0Q21.13 0 22.82-1.69L22.82-1.69Q24.51-3.38 24.51-5.75L24.51-5.75L24.51-8.62Q24.51-11.01 22.82-12.70L22.82-12.70Q21.13-14.37 18.76-14.37L18.76-14.37L7.25-14.37Q6.07-14.37 5.22-15.21L5.22-15.21Q4.38-16.06 4.38-17.26L4.38-17.26L4.38-18.69Q4.38-19.87 5.22-20.71L5.22-20.71Q6.07-21.56 7.25-21.56L7.25-21.56ZM52.52-24.43L49.64-24.43L49.64-14.37L32.39-14.37L32.39-24.43L29.51-24.43L29.51 0L32.39 0L32.39-11.49L49.64-11.49L49.64 0L52.52 0L52.52-24.43ZM83.40-24.43L80.12-24.43L70.46-12.36L60.81-24.43L57.52-24.43L57.52 0L60.40 0L60.40-20.34L70.46-7.76L80.53-20.34L80.53 0L83.40 0L83.40-24.43ZM88.41-24.43L88.41 0L91.28 0L91.28-24.43L88.41-24.43ZM99.16-24.43L96.29-24.43L96.29 0L119.29 0L119.29-2.87L99.16-2.87L99.16-24.43ZM147.30-24.43L144.43-24.43L144.43-18.69Q144.43-16.90 143.15-15.64L143.15-15.64Q141.89-14.37 140.11-14.37L140.11-14.37L131.49-14.37Q129.70-14.37 128.43-15.64L128.43-15.64Q127.17-16.90 127.17-18.69L127.17-18.69L127.17-24.43L124.30-24.43L124.30-18.69Q124.30-15.72 126.40-13.62L126.40-13.62Q128.50-11.49 131.49-11.49L131.49-11.49L134.36-11.49L134.36 0L137.23 0L137.23-11.49L140.11-11.49Q143.08-11.49 145.20-13.62L145.20-13.62Q147.30-15.72 147.30-18.69L147.30-18.69L147.30-24.43Z" transform="translate(-1.5024038461538, 24.432842548077)"></path></g> <!----> <!----> <!----> <!----> <!----> <!----> <g fill="#ff2351" transform="translate(148.8000030517578,0)"></g></g> <g class="tp-slogan iconsvg-slogansvg" fill="#000b34" transform="translate(0,30.43000030517578)"><!----> <rect x="0" height="1" y="5.675000190734863" width="42.76000213623047"></rect> <rect height="1" y="5.675000190734863" width="42.76000213623047" x="103.04000091552734"></rect> <g transform="translate(45.76000213623047,0)"><path d="M0.08-12.35C0.53-11.99 1.06-11.23 1.37-10.73L4.83-5.32L0.38 0L3.15 0L5.36-4.50L7.28-1.52C7.90-0.55 8.11 0 9.08 0L12.14 0C11.55-0.47 11.12-1.06 10.54-1.96L7.45-6.80L11.93-12.35L9.16-12.35L6.90-7.66L4.48-11.38C4.18-11.86 3.86-12.35 3.21-12.35ZM42.29-12.35C42.75-11.99 43.30-11.23 43.59-10.73L47.14-4.71L47.14-1.58C47.16-0.74 47.31 0 48.20 0L50.46 0C50.01-0.36 50.03-0.70 50.03-1.25L50.03-5.30L54.36-12.35L52.15-12.35L49.46-6.04L46.47-11.38C46.21-11.88 45.85-12.35 45.20-12.35Z" transform="translate(-0.076, 12.35)"></path></g></g></g></g></svg>